{
    "patcher": {
        "fileversion": 1,
        "appversion": {
            "major": 9,
            "minor": 1,
            "revision": 2,
            "architecture": "x64",
            "modernui": 1
        },
        "classnamespace": "box",
        "rect": [ 34.0, 96.0, 1167.0, 884.0 ],
        "boxes": [
            {
                "box": {
                    "id": "obj-41",
                    "maxclass": "newobj",
                    "numinlets": 2,
                    "numoutlets": 1,
                    "outlettype": [ "float" ],
                    "patching_rect": [ 1780.645239830017, 308.60216414928436, 39.0, 22.0 ],
                    "text": "/ 100."
                }
            },
            {
                "box": {
                    "id": "obj-36",
                    "maxclass": "newobj",
                    "numinlets": 2,
                    "numoutlets": 1,
                    "outlettype": [ "" ],
                    "patching_rect": [ 1780.645239830017, 270.9677538871765, 73.0, 22.0 ],
                    "text": "random 100"
                }
            },
            {
                "box": {
                    "id": "obj-37",
                    "maxclass": "button",
                    "numinlets": 1,
                    "numoutlets": 1,
                    "outlettype": [ "bang" ],
                    "parameter_enable": 0,
                    "patching_rect": [ 1780.645239830017, 219.35484838485718, 24.0, 24.0 ]
                }
            },
            {
                "box": {
                    "id": "obj-38",
                    "maxclass": "newobj",
                    "numinlets": 2,
                    "numoutlets": 1,
                    "outlettype": [ "float" ],
                    "patching_rect": [ 1663.440933585167, 308.60216414928436, 39.0, 22.0 ],
                    "text": "/ 100."
                }
            },
            {
                "box": {
                    "id": "obj-44",
                    "maxclass": "newobj",
                    "numinlets": 2,
                    "numoutlets": 1,
                    "outlettype": [ "" ],
                    "patching_rect": [ 1663.440933585167, 270.9677538871765, 73.0, 22.0 ],
                    "text": "random 100"
                }
            },
            {
                "box": {
                    "id": "obj-46",
                    "maxclass": "button",
                    "numinlets": 1,
                    "numoutlets": 1,
                    "outlettype": [ "bang" ],
                    "parameter_enable": 0,
                    "patching_rect": [ 1663.440933585167, 219.35484838485718, 24.0, 24.0 ]
                }
            },
            {
                "box": {
                    "id": "obj-48",
                    "maxclass": "message",
                    "numinlets": 2,
                    "numoutlets": 1,
                    "outlettype": [ "" ],
                    "patching_rect": [ 1780.645239830017, 417.2043194770813, 120.0, 22.0 ],
                    "text": "setclip 1 pitchshift $1"
                }
            },
            {
                "box": {
                    "format": 6,
                    "id": "obj-49",
                    "maxclass": "flonum",
                    "numinlets": 1,
                    "numoutlets": 2,
                    "outlettype": [ "", "bang" ],
                    "parameter_enable": 0,
                    "patching_rect": [ 1780.645239830017, 379.56990921497345, 50.0, 22.0 ]
                }
            },
            {
                "box": {
                    "format": 6,
                    "id": "obj-50",
                    "maxclass": "flonum",
                    "numinlets": 1,
                    "numoutlets": 2,
                    "outlettype": [ "", "bang" ],
                    "parameter_enable": 0,
                    "patching_rect": [ 1658.0645892620087, 379.56990921497345, 50.0, 22.0 ]
                }
            },
            {
                "box": {
                    "id": "obj-51",
                    "maxclass": "message",
                    "numinlets": 2,
                    "numoutlets": 1,
                    "outlettype": [ "" ],
                    "patching_rect": [ 1658.0645892620087, 417.2043194770813, 105.0, 22.0 ],
                    "text": "setclip 1 speed $1"
                }
            },
            {
                "box": {
                    "id": "obj-53",
                    "maxclass": "ezdac~",
                    "numinlets": 2,
                    "numoutlets": 0,
                    "patching_rect": [ 1501.0753350257874, 817.2043371200562, 45.0, 45.0 ]
                }
            },
            {
                "box": {
                    "id": "obj-55",
                    "maxclass": "gain~",
                    "multichannelvariant": 0,
                    "numinlets": 1,
                    "numoutlets": 2,
                    "outlettype": [ "signal", "" ],
                    "parameter_enable": 0,
                    "patching_rect": [ 1511.8280236721039, 627.9570169448853, 22.0, 140.0 ]
                }
            },
            {
                "box": {
                    "id": "obj-57",
                    "maxclass": "message",
                    "numinlets": 2,
                    "numoutlets": 1,
                    "outlettype": [ "" ],
                    "patching_rect": [ 1511.8280236721039, 417.2043194770813, 131.0, 22.0 ],
                    "text": "setclip 1 timestretch $1"
                }
            },
            {
                "box": {
                    "id": "obj-60",
                    "maxclass": "toggle",
                    "numinlets": 1,
                    "numoutlets": 1,
                    "outlettype": [ "int" ],
                    "parameter_enable": 0,
                    "patching_rect": [ 1511.8280236721039, 378.4946403503418, 24.0, 24.0 ]
                }
            },
            {
                "box": {
                    "clipheight": 94.26269686222076,
                    "data": {
                        "clips": [
                            {
                                "absolutepath": "morph.256.rom.aif",
                                "filename": "morph.256.rom.aif",
                                "filekind": "audiofile",
                                "id": "u851004745",
                                "selection": [ 0.1875000000000001, 0.9375 ],
                                "loop": 1,
                                "content_state": {
                                    "timestretch": 0,
                                    "loop": 1,
                                    "pitchshift": 1.666,
                                    "speed": 0.4
                                }
                            }
                        ]
                    },
                    "id": "obj-63",
                    "maxclass": "playlist~",
                    "mode": "basic",
                    "numinlets": 1,
                    "numoutlets": 5,
                    "outlettype": [ "signal", "signal", "signal", "", "dictionary" ],
                    "parameter_enable": 0,
                    "patching_rect": [ 1511.8280236721039, 489.24733340740204, 247.0, 95.26269686222076 ],
                    "pitchshiftcent": [ 884 ],
                    "quality": "basic",
                    "saved_attribute_attributes": {
                        "candicane2": {
                            "expression": ""
                        },
                        "candicane3": {
                            "expression": ""
                        },
                        "candicane4": {
                            "expression": ""
                        },
                        "candicane5": {
                            "expression": ""
                        },
                        "candicane6": {
                            "expression": ""
                        },
                        "candicane7": {
                            "expression": ""
                        },
                        "candicane8": {
                            "expression": ""
                        }
                    }
                }
            },
            {
                "box": {
                    "annotation": "## View or monitor video input ##",
                    "bgmode": 1,
                    "border": 0,
                    "clickthrough": 0,
                    "enablehscroll": 0,
                    "enablevscroll": 0,
                    "id": "obj-32",
                    "lockeddragscroll": 0,
                    "lockedsize": 0,
                    "maxclass": "bpatcher",
                    "name": "vz.viewr.maxpat",
                    "numinlets": 1,
                    "numoutlets": 0,
                    "offset": [ 0.0, 0.0 ],
                    "patching_rect": [ 1476.0, 1408.0, 230.0, 208.0 ],
                    "prototypename": "pixl",
                    "varname": "viewr",
                    "viewvisibility": 1
                }
            },
            {
                "box": {
                    "annotation": "## Change a video's brightness/contrast/saturation ##",
                    "bgmode": 1,
                    "border": 0,
                    "clickthrough": 0,
                    "enablehscroll": 0,
                    "enablevscroll": 0,
                    "id": "obj-30",
                    "lockeddragscroll": 0,
                    "lockedsize": 0,
                    "maxclass": "bpatcher",
                    "name": "vz.brcosr.maxpat",
                    "numinlets": 7,
                    "numoutlets": 1,
                    "offset": [ 0.0, 0.0 ],
                    "outlettype": [ "jit_gl_texture" ],
                    "patching_rect": [ 1330.0, 1182.0, 208.0, 130.0 ],
                    "prototypename": "pixl",
                    "varname": "brcosr",
                    "viewvisibility": 1
                }
            },
            {
                "box": {
                    "annotation": "## The VIZZIE video player/looper ##",
                    "bgmode": 1,
                    "border": 0,
                    "clickthrough": 0,
                    "enablehscroll": 0,
                    "enablevscroll": 0,
                    "id": "obj-28",
                    "lockeddragscroll": 0,
                    "lockedsize": 0,
                    "maxclass": "bpatcher",
                    "name": "vz.playr.maxpat",
                    "numinlets": 7,
                    "numoutlets": 2,
                    "offset": [ 0.0, 0.0 ],
                    "outlettype": [ "jit_gl_texture", "" ],
                    "patching_rect": [ 1330.0, 892.0, 348.0, 158.0 ],
                    "prototypename": "pixl",
                    "varname": "playr",
                    "viewvisibility": 1
                }
            },
            {
                "box": {
                    "annotation": "## VIZZIE video projector interface ##",
                    "bgmode": 1,
                    "border": 0,
                    "clickthrough": 0,
                    "enablehscroll": 0,
                    "enablevscroll": 0,
                    "id": "obj-25",
                    "lockeddragscroll": 0,
                    "lockedsize": 0,
                    "maxclass": "bpatcher",
                    "name": "vz.projectr.maxpat",
                    "numinlets": 4,
                    "numoutlets": 1,
                    "offset": [ 0.0, 0.0 ],
                    "outlettype": [ "" ],
                    "patching_rect": [ 1272.0, 1492.0, 168.0, 108.0 ],
                    "prototypename": "pixl",
                    "varname": "projectr",
                    "viewvisibility": 1
                }
            },
            {
                "box": {
                    "id": "obj-91",
                    "maxclass": "comment",
                    "numinlets": 1,
                    "numoutlets": 0,
                    "patching_rect": [ 1168.891817331314, 1158.5474299192429, 63.0, 20.0 ],
                    "text": "y bottom"
                }
            },
            {
                "box": {
                    "id": "obj-89",
                    "maxclass": "comment",
                    "numinlets": 1,
                    "numoutlets": 0,
                    "patching_rect": [ 1011.4680777788162, 1181.4468002319336, 63.0, 20.0 ],
                    "text": "x right"
                }
            },
            {
                "box": {
                    "format": 6,
                    "id": "obj-86",
                    "maxclass": "flonum",
                    "numinlets": 1,
                    "numoutlets": 2,
                    "outlettype": [ "", "bang" ],
                    "parameter_enable": 0,
                    "patching_rect": [ 1116.891817331314, 1157.5474299192429, 50.0, 22.0 ]
                }
            },
            {
                "box": {
                    "id": "obj-87",
                    "maxclass": "newobj",
                    "numinlets": 6,
                    "numoutlets": 1,
                    "outlettype": [ "" ],
                    "patching_rect": [ 1121.6215467453003, 1109.5744601488113, 103.0, 22.0 ],
                    "text": "scale 0 320 127 0"
                }
            },
            {
                "box": {
                    "format": 6,
                    "id": "obj-84",
                    "maxclass": "flonum",
                    "numinlets": 1,
                    "numoutlets": 2,
                    "outlettype": [ "", "bang" ],
                    "parameter_enable": 0,
                    "patching_rect": [ 844.2064347267151, 1157.5474299192429, 50.0, 22.0 ]
                }
            },
            {
                "box": {
                    "id": "obj-85",
                    "maxclass": "newobj",
                    "numinlets": 6,
                    "numoutlets": 1,
                    "outlettype": [ "" ],
                    "patching_rect": [ 848.9361641407013, 1109.5744601488113, 103.0, 22.0 ],
                    "text": "scale 0 320 127 0"
                }
            },
            {
                "box": {
                    "format": 6,
                    "id": "obj-74",
                    "maxclass": "flonum",
                    "numinlets": 1,
                    "numoutlets": 2,
                    "outlettype": [ "", "bang" ],
                    "parameter_enable": 0,
                    "patching_rect": [ 1071.775265455246, 1447.872330069542, 50.0, 22.0 ]
                }
            },
            {
                "box": {
                    "id": "obj-75",
                    "maxclass": "newobj",
                    "numinlets": 6,
                    "numoutlets": 1,
                    "outlettype": [ "" ],
                    "patching_rect": [ 1071.775265455246, 1403.1914793252945, 110.0, 22.0 ],
                    "text": "scale 0 127 0 1023"
                }
            },
            {
                "box": {
                    "format": 6,
                    "id": "obj-76",
                    "maxclass": "flonum",
                    "numinlets": 1,
                    "numoutlets": 2,
                    "outlettype": [ "", "bang" ],
                    "parameter_enable": 0,
                    "patching_rect": [ 946.2433514595032, 1447.872330069542, 50.0, 22.0 ]
                }
            },
            {
                "box": {
                    "id": "obj-77",
                    "maxclass": "newobj",
                    "numinlets": 6,
                    "numoutlets": 1,
                    "outlettype": [ "" ],
                    "patching_rect": [ 946.2433514595032, 1403.1914793252945, 110.0, 22.0 ],
                    "text": "scale 0 127 0 1023"
                }
            },
            {
                "box": {
                    "format": 6,
                    "id": "obj-78",
                    "maxclass": "flonum",
                    "numinlets": 1,
                    "numoutlets": 2,
                    "outlettype": [ "", "bang" ],
                    "parameter_enable": 0,
                    "patching_rect": [ 1071.775265455246, 1365.9574370384216, 50.0, 22.0 ]
                }
            },
            {
                "box": {
                    "format": 6,
                    "id": "obj-79",
                    "maxclass": "flonum",
                    "numinlets": 1,
                    "numoutlets": 2,
                    "outlettype": [ "", "bang" ],
                    "parameter_enable": 0,
                    "patching_rect": [ 990.9242022037506, 1365.9574370384216, 50.0, 22.0 ]
                }
            },
            {
                "box": {
                    "id": "obj-80",
                    "maxclass": "comment",
                    "numinlets": 1,
                    "numoutlets": 0,
                    "patching_rect": [ 856.0, 1186.0, 72.91666388511658, 20.0 ],
                    "text": "ytop"
                }
            },
            {
                "box": {
                    "id": "obj-81",
                    "maxclass": "pictslider",
                    "numinlets": 2,
                    "numoutlets": 2,
                    "outlettype": [ "int", "int" ],
                    "parameter_enable": 0,
                    "patching_rect": [ 990.9242022037506, 1221.27658700943, 100.0, 100.0 ]
                }
            },
            {
                "box": {
                    "format": 6,
                    "id": "obj-82",
                    "maxclass": "flonum",
                    "numinlets": 1,
                    "numoutlets": 2,
                    "outlettype": [ "", "bang" ],
                    "parameter_enable": 0,
                    "patching_rect": [ 997.3071808815002, 1157.4468002319336, 50.0, 22.0 ]
                }
            },
            {
                "box": {
                    "id": "obj-83",
                    "maxclass": "newobj",
                    "numinlets": 6,
                    "numoutlets": 1,
                    "outlettype": [ "" ],
                    "patching_rect": [ 1001.5625, 1109.5744601488113, 103.0, 22.0 ],
                    "text": "scale 0 320 127 0"
                }
            },
            {
                "box": {
                    "format": 6,
                    "id": "obj-72",
                    "maxclass": "flonum",
                    "numinlets": 1,
                    "numoutlets": 2,
                    "outlettype": [ "", "bang" ],
                    "parameter_enable": 0,
                    "patching_rect": [ 806.5319097042084, 1447.9675971269608, 50.0, 22.0 ]
                }
            },
            {
                "box": {
                    "id": "obj-73",
                    "maxclass": "newobj",
                    "numinlets": 6,
                    "numoutlets": 1,
                    "outlettype": [ "" ],
                    "patching_rect": [ 806.5319097042084, 1403.1914793252945, 110.0, 22.0 ],
                    "text": "scale 0 127 0 1023"
                }
            },
            {
                "box": {
                    "format": 6,
                    "id": "obj-71",
                    "maxclass": "flonum",
                    "numinlets": 1,
                    "numoutlets": 2,
                    "outlettype": [ "", "bang" ],
                    "parameter_enable": 0,
                    "patching_rect": [ 680.8510589599609, 1447.872330069542, 50.0, 22.0 ]
                }
            },
            {
                "box": {
                    "id": "obj-69",
                    "maxclass": "newobj",
                    "numinlets": 6,
                    "numoutlets": 1,
                    "outlettype": [ "" ],
                    "patching_rect": [ 680.8510589599609, 1403.1914793252945, 110.0, 22.0 ],
                    "text": "scale 0 127 0 1023"
                }
            },
            {
                "box": {
                    "format": 6,
                    "id": "obj-68",
                    "maxclass": "flonum",
                    "numinlets": 1,
                    "numoutlets": 2,
                    "outlettype": [ "", "bang" ],
                    "parameter_enable": 0,
                    "patching_rect": [ 806.5319097042084, 1365.9574370384216, 50.0, 22.0 ]
                }
            },
            {
                "box": {
                    "format": 6,
                    "id": "obj-66",
                    "maxclass": "flonum",
                    "numinlets": 1,
                    "numoutlets": 2,
                    "outlettype": [ "", "bang" ],
                    "parameter_enable": 0,
                    "patching_rect": [ 725.5319097042084, 1365.9574370384216, 50.0, 22.0 ]
                }
            },
            {
                "box": {
                    "id": "obj-64",
                    "maxclass": "comment",
                    "numinlets": 1,
                    "numoutlets": 0,
                    "patching_rect": [ 747.91663813591, 1190.4255234003067, 72.91666388511658, 20.0 ],
                    "text": "x left"
                }
            },
            {
                "box": {
                    "id": "obj-62",
                    "maxclass": "pictslider",
                    "numinlets": 2,
                    "numoutlets": 2,
                    "outlettype": [ "int", "int" ],
                    "parameter_enable": 0,
                    "patching_rect": [ 725.5319097042084, 1221.27658700943, 100.0, 100.0 ]
                }
            },
            {
                "box": {
                    "format": 6,
                    "id": "obj-61",
                    "maxclass": "flonum",
                    "numinlets": 1,
                    "numoutlets": 2,
                    "outlettype": [ "", "bang" ],
                    "parameter_enable": 0,
                    "patching_rect": [ 731.914888381958, 1157.4468002319336, 50.0, 22.0 ]
                }
            },
            {
                "box": {
                    "id": "obj-59",
                    "maxclass": "newobj",
                    "numinlets": 6,
                    "numoutlets": 1,
                    "outlettype": [ "" ],
                    "patching_rect": [ 736.1702075004578, 1109.5744601488113, 103.0, 22.0 ],
                    "text": "scale 0 320 127 0"
                }
            },
            {
                "box": {
                    "format": 6,
                    "id": "obj-58",
                    "maxclass": "flonum",
                    "numinlets": 1,
                    "numoutlets": 2,
                    "outlettype": [ "", "bang" ],
                    "parameter_enable": 0,
                    "patching_rect": [ 1024.4680777788162, 1052.1276520490646, 50.0, 22.0 ]
                }
            },
            {
                "box": {
                    "format": 6,
                    "id": "obj-56",
                    "maxclass": "flonum",
                    "numinlets": 1,
                    "numoutlets": 2,
                    "outlettype": [ "", "bang" ],
                    "parameter_enable": 0,
                    "patching_rect": [ 964.8936101198196, 1052.1276520490646, 50.0, 22.0 ]
                }
            },
            {
                "box": {
                    "format": 6,
                    "id": "obj-54",
                    "maxclass": "flonum",
                    "numinlets": 1,
                    "numoutlets": 2,
                    "outlettype": [ "", "bang" ],
                    "parameter_enable": 0,
                    "patching_rect": [ 906.382972240448, 1052.1276520490646, 50.0, 22.0 ]
                }
            },
            {
                "box": {
                    "format": 6,
                    "id": "obj-52",
                    "maxclass": "flonum",
                    "numinlets": 1,
                    "numoutlets": 2,
                    "outlettype": [ "", "bang" ],
                    "parameter_enable": 0,
                    "patching_rect": [ 848.9361641407013, 1052.1276520490646, 50.0, 22.0 ]
                }
            },
            {
                "box": {
                    "id": "obj-47",
                    "maxclass": "message",
                    "numinlets": 2,
                    "numoutlets": 1,
                    "outlettype": [ "" ],
                    "patching_rect": [ 931.25, 352.1276570558548, 35.0, 22.0 ],
                    "text": "clear"
                }
            },
            {
                "box": {
                    "id": "obj-45",
                    "maxclass": "newobj",
                    "numinlets": 1,
                    "numoutlets": 2,
                    "outlettype": [ "jit_matrix", "" ],
                    "patching_rect": [ 937.75, 396.2686425447464, 119.0, 22.0 ],
                    "text": "jit.lcd 4 char 320 240"
                }
            },
            {
                "box": {
                    "id": "obj-43",
                    "maxclass": "comment",
                    "numinlets": 1,
                    "numoutlets": 0,
                    "patching_rect": [ 687.919756770134, 935.9375, 46.5116286277771, 20.0 ],
                    "text": "x right"
                }
            },
            {
                "box": {
                    "id": "obj-42",
                    "maxclass": "comment",
                    "numinlets": 1,
                    "numoutlets": 0,
                    "patching_rect": [ 592.607256770134, 851.5625, 46.5116286277771, 20.0 ],
                    "text": "y top"
                }
            },
            {
                "box": {
                    "id": "obj-40",
                    "maxclass": "newobj",
                    "numinlets": 1,
                    "numoutlets": 5,
                    "outlettype": [ "int", "int", "int", "int", "int" ],
                    "patching_rect": [ 898.4375, 1007.8125, 97.0, 22.0 ],
                    "text": "unpack 0 0 0 0 0"
                }
            },
            {
                "box": {
                    "id": "obj-39",
                    "maxclass": "message",
                    "numinlets": 2,
                    "numoutlets": 1,
                    "outlettype": [ "" ],
                    "patching_rect": [ 878.125, 942.1875, 158.0, 22.0 ],
                    "text": "clear, framerect $1 $2 $3 $4"
                }
            },
            {
                "box": {
                    "id": "obj-35",
                    "maxclass": "panel",
                    "numinlets": 1,
                    "numoutlets": 0,
                    "patching_rect": [ 541.044756770134, 885.9375, 128.0, 128.0 ]
                }
            },
            {
                "box": {
                    "id": "obj-34",
                    "maxclass": "newobj",
                    "numinlets": 4,
                    "numoutlets": 1,
                    "outlettype": [ "" ],
                    "patching_rect": [ 931.25, 860.9375, 68.0, 22.0 ],
                    "text": "pak 0 0 0 0"
                }
            },
            {
                "box": {
                    "format": 6,
                    "id": "obj-33",
                    "maxclass": "flonum",
                    "numinlets": 1,
                    "numoutlets": 2,
                    "outlettype": [ "", "bang" ],
                    "parameter_enable": 0,
                    "patching_rect": [ 1054.6875, 798.4375, 50.0, 22.0 ]
                }
            },
            {
                "box": {
                    "format": 6,
                    "id": "obj-31",
                    "maxclass": "flonum",
                    "numinlets": 1,
                    "numoutlets": 2,
                    "outlettype": [ "", "bang" ],
                    "parameter_enable": 0,
                    "patching_rect": [ 1001.5625, 798.4375, 50.0, 22.0 ]
                }
            },
            {
                "box": {
                    "format": 6,
                    "id": "obj-29",
                    "maxclass": "flonum",
                    "numinlets": 1,
                    "numoutlets": 2,
                    "outlettype": [ "", "bang" ],
                    "parameter_enable": 0,
                    "patching_rect": [ 948.4375, 798.4375, 50.0, 22.0 ]
                }
            },
            {
                "box": {
                    "format": 6,
                    "id": "obj-26",
                    "maxclass": "flonum",
                    "numinlets": 1,
                    "numoutlets": 2,
                    "outlettype": [ "", "bang" ],
                    "parameter_enable": 0,
                    "patching_rect": [ 893.75, 798.4375, 50.0, 22.0 ]
                }
            },
            {
                "box": {
                    "id": "obj-23",
                    "maxclass": "newobj",
                    "numinlets": 1,
                    "numoutlets": 2,
                    "outlettype": [ "int", "int" ],
                    "patching_rect": [ 976.5625, 720.3125, 67.0, 22.0 ],
                    "text": "unpack 0 0"
                }
            },
            {
                "box": {
                    "id": "obj-22",
                    "maxclass": "newobj",
                    "numinlets": 1,
                    "numoutlets": 2,
                    "outlettype": [ "int", "int" ],
                    "patching_rect": [ 871.875, 726.5625, 67.0, 22.0 ],
                    "text": "unpack 0 0"
                }
            },
            {
                "box": {
                    "id": "obj-20",
                    "maxclass": "newobj",
                    "numinlets": 1,
                    "numoutlets": 3,
                    "outlettype": [ "", "", "" ],
                    "patching_rect": [ 898.4375, 665.625, 79.0, 22.0 ],
                    "text": "jit.findbounds"
                }
            },
            {
                "box": {
                    "id": "obj-16",
                    "maxclass": "newobj",
                    "numinlets": 1,
                    "numoutlets": 1,
                    "outlettype": [ "" ],
                    "patching_rect": [ 960.9375, 582.8125, 92.0, 22.0 ],
                    "text": "prepend max 1."
                }
            },
            {
                "box": {
                    "id": "obj-15",
                    "maxclass": "newobj",
                    "numinlets": 1,
                    "numoutlets": 1,
                    "outlettype": [ "" ],
                    "patching_rect": [ 850.0, 582.8125, 89.0, 22.0 ],
                    "text": "prepend min 0."
                }
            },
            {
                "box": {
                    "id": "obj-11",
                    "maxclass": "newobj",
                    "numinlets": 1,
                    "numoutlets": 1,
                    "outlettype": [ "" ],
                    "patching_rect": [ 956.25, 529.6875, 82.0, 22.0 ],
                    "text": "vexpr $f1+0.1"
                }
            },
            {
                "box": {
                    "id": "obj-8",
                    "maxclass": "newobj",
                    "numinlets": 1,
                    "numoutlets": 1,
                    "outlettype": [ "" ],
                    "patching_rect": [ 807.8125, 529.6875, 79.0, 22.0 ],
                    "text": "vexpr $f1-0.1"
                }
            },
            {
                "box": {
                    "id": "obj-13",
                    "maxclass": "comment",
                    "numinlets": 1,
                    "numoutlets": 0,
                    "patching_rect": [ 492.7007272839546, 578.0, 54.0145982503891, 20.0 ],
                    "text": "suckah"
                }
            },
            {
                "box": {
                    "id": "obj-9",
                    "maxclass": "comment",
                    "numinlets": 1,
                    "numoutlets": 0,
                    "patching_rect": [ 492.7007272839546, 608.5, 54.0145982503891, 20.0 ],
                    "text": "swatch"
                }
            },
            {
                "box": {
                    "id": "obj-7",
                    "maxclass": "suckah",
                    "numinlets": 1,
                    "numoutlets": 1,
                    "outlettype": [ "" ],
                    "patching_rect": [ 285.0, 509.0, 174.0, 134.0 ]
                }
            },
            {
                "box": {
                    "id": "obj-3",
                    "maxclass": "swatch",
                    "numinlets": 3,
                    "numoutlets": 2,
                    "outlettype": [ "", "float" ],
                    "parameter_enable": 0,
                    "patching_rect": [ 292.9219841659069, 715.7894668579102, 158.1560316681862, 86.52482450008392 ],
                    "saturation": 0.5725490196078431
                }
            },
            {
                "box": {
                    "id": "obj-27",
                    "maxclass": "message",
                    "numinlets": 2,
                    "numoutlets": 1,
                    "outlettype": [ "" ],
                    "patching_rect": [ 541.044756770134, 524.626846909523, 66.0, 22.0 ],
                    "text": "vdevice $1"
                }
            },
            {
                "box": {
                    "id": "obj-24",
                    "items": [ "FaceTime HD Camera", ",", "Dieder Camera", ",", "FaceTime HD Camera", ",", "FaceTime HD Camera", ",", "FaceTime HD Camera" ],
                    "maxclass": "umenu",
                    "numinlets": 1,
                    "numoutlets": 3,
                    "outlettype": [ "int", "", "" ],
                    "parameter_enable": 0,
                    "patching_rect": [ 541.044756770134, 482.08953499794006, 183.56163048744202, 22.0 ]
                }
            },
            {
                "box": {
                    "id": "obj-21",
                    "maxclass": "message",
                    "numinlets": 2,
                    "numoutlets": 1,
                    "outlettype": [ "" ],
                    "patching_rect": [ 628.3581864833832, 357.4626737833023, 146.57533180713654, 22.0 ],
                    "text": "\"FaceTime HD Camera\""
                }
            },
            {
                "box": {
                    "id": "obj-19",
                    "maxclass": "newobj",
                    "numinlets": 1,
                    "numoutlets": 1,
                    "outlettype": [ "" ],
                    "patching_rect": [ 543.2835626602173, 429.8507308959961, 96.0, 22.0 ],
                    "text": "prepend append"
                }
            },
            {
                "box": {
                    "id": "obj-18",
                    "maxclass": "newobj",
                    "numinlets": 1,
                    "numoutlets": 1,
                    "outlettype": [ "" ],
                    "patching_rect": [ 544.7760999202728, 396.2686425447464, 25.0, 22.0 ],
                    "text": "iter"
                }
            },
            {
                "box": {
                    "id": "obj-17",
                    "maxclass": "newobj",
                    "numinlets": 2,
                    "numoutlets": 2,
                    "outlettype": [ "", "" ],
                    "patching_rect": [ 543.2835626602173, 357.4626737833023, 79.0, 22.0 ],
                    "text": "route vdevlist"
                }
            },
            {
                "box": {
                    "id": "obj-14",
                    "maxclass": "message",
                    "numinlets": 2,
                    "numoutlets": 1,
                    "outlettype": [ "" ],
                    "patching_rect": [ 442.5372976064682, 363.4328228235245, 65.0, 22.0 ],
                    "text": "getvdevlist"
                }
            },
            {
                "box": {
                    "id": "obj-12",
                    "maxclass": "message",
                    "numinlets": 2,
                    "numoutlets": 1,
                    "outlettype": [ "" ],
                    "patching_rect": [ 388.8059562444687, 363.4328228235245, 37.0, 22.0 ],
                    "text": "close"
                }
            },
            {
                "box": {
                    "id": "obj-10",
                    "maxclass": "message",
                    "numinlets": 2,
                    "numoutlets": 1,
                    "outlettype": [ "" ],
                    "patching_rect": [ 335.0746148824692, 363.4328228235245, 35.0, 22.0 ],
                    "text": "open"
                }
            },
            {
                "box": {
                    "id": "obj-6",
                    "maxclass": "jit.pwindow",
                    "numinlets": 1,
                    "numoutlets": 2,
                    "outlettype": [ "jit_matrix", "" ],
                    "patching_rect": [ 284.0, 508.0, 176.0, 136.0 ],
                    "sync": 1
                }
            },
            {
                "box": {
                    "id": "obj-5",
                    "maxclass": "newobj",
                    "numinlets": 1,
                    "numoutlets": 2,
                    "outlettype": [ "jit_matrix", "" ],
                    "patching_rect": [ 283.95684719085693, 453.73132705688477, 137.0, 22.0 ],
                    "text": "jit.matrix 4 char 320 240"
                }
            },
            {
                "box": {
                    "id": "obj-4",
                    "maxclass": "toggle",
                    "numinlets": 1,
                    "numoutlets": 1,
                    "outlettype": [ "int" ],
                    "parameter_enable": 0,
                    "patching_rect": [ 261.19402050971985, 330.59700310230255, 24.0, 24.0 ]
                }
            },
            {
                "box": {
                    "id": "obj-2",
                    "maxclass": "newobj",
                    "numinlets": 2,
                    "numoutlets": 1,
                    "outlettype": [ "bang" ],
                    "patching_rect": [ 261.19402050971985, 363.4328228235245, 63.0, 22.0 ],
                    "text": "qmetro 60"
                }
            },
            {
                "box": {
                    "id": "obj-1",
                    "maxclass": "newobj",
                    "numinlets": 1,
                    "numoutlets": 2,
                    "outlettype": [ "jit_matrix", "" ],
                    "patching_rect": [ 283.95684719085693, 411.1940151453018, 105.0, 22.0 ],
                    "text": "jit.qt.grab 320 240"
                }
            }
        ],
        "lines": [
            {
                "patchline": {
                    "destination": [ "obj-17", 0 ],
                    "source": [ "obj-1", 1 ]
                }
            },
            {
                "patchline": {
                    "destination": [ "obj-20", 0 ],
                    "order": 0,
                    "source": [ "obj-1", 0 ]
                }
            },
            {
                "patchline": {
                    "destination": [ "obj-5", 0 ],
                    "order": 1,
                    "source": [ "obj-1", 0 ]
                }
            },
            {
                "patchline": {
                    "destination": [ "obj-1", 0 ],
                    "source": [ "obj-10", 0 ]
                }
            },
            {
                "patchline": {
                    "destination": [ "obj-16", 0 ],
                    "source": [ "obj-11", 0 ]
                }
            },
            {
                "patchline": {
                    "destination": [ "obj-1", 0 ],
                    "source": [ "obj-12", 0 ]
                }
            },
            {
                "patchline": {
                    "destination": [ "obj-1", 0 ],
                    "source": [ "obj-14", 0 ]
                }
            },
            {
                "patchline": {
                    "destination": [ "obj-20", 0 ],
                    "source": [ "obj-15", 0 ]
                }
            },
            {
                "patchline": {
                    "destination": [ "obj-20", 0 ],
                    "source": [ "obj-16", 0 ]
                }
            },
            {
                "patchline": {
                    "destination": [ "obj-18", 0 ],
                    "order": 1,
                    "source": [ "obj-17", 0 ]
                }
            },
            {
                "patchline": {
                    "destination": [ "obj-21", 1 ],
                    "order": 0,
                    "source": [ "obj-17", 0 ]
                }
            },
            {
                "patchline": {
                    "destination": [ "obj-19", 0 ],
                    "source": [ "obj-18", 0 ]
                }
            },
            {
                "patchline": {
                    "destination": [ "obj-24", 0 ],
                    "source": [ "obj-19", 0 ]
                }
            },
            {
                "patchline": {
                    "destination": [ "obj-1", 0 ],
                    "order": 1,
                    "source": [ "obj-2", 0 ]
                }
            },
            {
                "patchline": {
                    "destination": [ "obj-45", 0 ],
                    "order": 0,
                    "source": [ "obj-2", 0 ]
                }
            },
            {
                "patchline": {
                    "destination": [ "obj-22", 0 ],
                    "source": [ "obj-20", 0 ]
                }
            },
            {
                "patchline": {
                    "destination": [ "obj-23", 0 ],
                    "source": [ "obj-20", 1 ]
                }
            },
            {
                "patchline": {
                    "destination": [ "obj-26", 0 ],
                    "source": [ "obj-22", 0 ]
                }
            },
            {
                "patchline": {
                    "destination": [ "obj-29", 0 ],
                    "source": [ "obj-22", 1 ]
                }
            },
            {
                "patchline": {
                    "destination": [ "obj-31", 0 ],
                    "source": [ "obj-23", 0 ]
                }
            },
            {
                "patchline": {
                    "destination": [ "obj-33", 0 ],
                    "source": [ "obj-23", 1 ]
                }
            },
            {
                "patchline": {
                    "destination": [ "obj-27", 0 ],
                    "source": [ "obj-24", 0 ]
                }
            },
            {
                "patchline": {
                    "destination": [ "obj-34", 0 ],
                    "source": [ "obj-26", 0 ]
                }
            },
            {
                "patchline": {
                    "destination": [ "obj-1", 0 ],
                    "source": [ "obj-27", 0 ]
                }
            },
            {
                "patchline": {
                    "destination": [ "obj-30", 0 ],
                    "source": [ "obj-28", 0 ]
                }
            },
            {
                "patchline": {
                    "destination": [ "obj-34", 1 ],
                    "source": [ "obj-29", 0 ]
                }
            },
            {
                "patchline": {
                    "destination": [ "obj-25", 0 ],
                    "order": 1,
                    "source": [ "obj-30", 0 ]
                }
            },
            {
                "patchline": {
                    "destination": [ "obj-32", 0 ],
                    "order": 0,
                    "source": [ "obj-30", 0 ]
                }
            },
            {
                "patchline": {
                    "destination": [ "obj-34", 2 ],
                    "source": [ "obj-31", 0 ]
                }
            },
            {
                "patchline": {
                    "destination": [ "obj-34", 3 ],
                    "source": [ "obj-33", 0 ]
                }
            },
            {
                "patchline": {
                    "destination": [ "obj-39", 0 ],
                    "source": [ "obj-34", 0 ]
                }
            },
            {
                "patchline": {
                    "destination": [ "obj-41", 0 ],
                    "source": [ "obj-36", 0 ]
                }
            },
            {
                "patchline": {
                    "destination": [ "obj-36", 0 ],
                    "source": [ "obj-37", 0 ]
                }
            },
            {
                "patchline": {
                    "destination": [ "obj-50", 0 ],
                    "source": [ "obj-38", 0 ]
                }
            },
            {
                "patchline": {
                    "destination": [ "obj-40", 0 ],
                    "order": 1,
                    "source": [ "obj-39", 0 ]
                }
            },
            {
                "patchline": {
                    "destination": [ "obj-45", 0 ],
                    "order": 0,
                    "source": [ "obj-39", 0 ]
                }
            },
            {
                "patchline": {
                    "destination": [ "obj-2", 0 ],
                    "source": [ "obj-4", 0 ]
                }
            },
            {
                "patchline": {
                    "destination": [ "obj-52", 0 ],
                    "source": [ "obj-40", 1 ]
                }
            },
            {
                "patchline": {
                    "destination": [ "obj-54", 0 ],
                    "source": [ "obj-40", 2 ]
                }
            },
            {
                "patchline": {
                    "destination": [ "obj-56", 0 ],
                    "source": [ "obj-40", 3 ]
                }
            },
            {
                "patchline": {
                    "destination": [ "obj-58", 0 ],
                    "source": [ "obj-40", 4 ]
                }
            },
            {
                "patchline": {
                    "destination": [ "obj-49", 0 ],
                    "source": [ "obj-41", 0 ]
                }
            },
            {
                "patchline": {
                    "destination": [ "obj-38", 0 ],
                    "source": [ "obj-44", 0 ]
                }
            },
            {
                "patchline": {
                    "destination": [ "obj-36", 0 ],
                    "order": 0,
                    "source": [ "obj-46", 0 ]
                }
            },
            {
                "patchline": {
                    "destination": [ "obj-44", 0 ],
                    "order": 1,
                    "source": [ "obj-46", 0 ]
                }
            },
            {
                "patchline": {
                    "destination": [ "obj-45", 0 ],
                    "source": [ "obj-47", 0 ]
                }
            },
            {
                "patchline": {
                    "destination": [ "obj-63", 0 ],
                    "source": [ "obj-48", 0 ]
                }
            },
            {
                "patchline": {
                    "destination": [ "obj-48", 0 ],
                    "source": [ "obj-49", 0 ]
                }
            },
            {
                "patchline": {
                    "destination": [ "obj-6", 0 ],
                    "source": [ "obj-5", 0 ]
                }
            },
            {
                "patchline": {
                    "destination": [ "obj-51", 0 ],
                    "source": [ "obj-50", 0 ]
                }
            },
            {
                "patchline": {
                    "destination": [ "obj-63", 0 ],
                    "source": [ "obj-51", 0 ]
                }
            },
            {
                "patchline": {
                    "destination": [ "obj-59", 0 ],
                    "source": [ "obj-52", 0 ]
                }
            },
            {
                "patchline": {
                    "destination": [ "obj-85", 0 ],
                    "source": [ "obj-54", 0 ]
                }
            },
            {
                "patchline": {
                    "destination": [ "obj-53", 1 ],
                    "order": 0,
                    "source": [ "obj-55", 0 ]
                }
            },
            {
                "patchline": {
                    "destination": [ "obj-53", 0 ],
                    "order": 1,
                    "source": [ "obj-55", 0 ]
                }
            },
            {
                "patchline": {
                    "destination": [ "obj-83", 0 ],
                    "source": [ "obj-56", 0 ]
                }
            },
            {
                "patchline": {
                    "destination": [ "obj-63", 0 ],
                    "source": [ "obj-57", 0 ]
                }
            },
            {
                "patchline": {
                    "destination": [ "obj-87", 0 ],
                    "source": [ "obj-58", 0 ]
                }
            },
            {
                "patchline": {
                    "destination": [ "obj-61", 0 ],
                    "source": [ "obj-59", 0 ]
                }
            },
            {
                "patchline": {
                    "destination": [ "obj-57", 0 ],
                    "source": [ "obj-60", 0 ]
                }
            },
            {
                "patchline": {
                    "destination": [ "obj-62", 0 ],
                    "source": [ "obj-61", 0 ]
                }
            },
            {
                "patchline": {
                    "destination": [ "obj-66", 0 ],
                    "source": [ "obj-62", 0 ]
                }
            },
            {
                "patchline": {
                    "destination": [ "obj-68", 0 ],
                    "source": [ "obj-62", 1 ]
                }
            },
            {
                "patchline": {
                    "destination": [ "obj-55", 0 ],
                    "source": [ "obj-63", 0 ]
                }
            },
            {
                "patchline": {
                    "destination": [ "obj-69", 0 ],
                    "source": [ "obj-66", 0 ]
                }
            },
            {
                "patchline": {
                    "destination": [ "obj-73", 0 ],
                    "source": [ "obj-68", 0 ]
                }
            },
            {
                "patchline": {
                    "destination": [ "obj-71", 0 ],
                    "source": [ "obj-69", 0 ]
                }
            },
            {
                "patchline": {
                    "destination": [ "obj-11", 0 ],
                    "order": 0,
                    "source": [ "obj-7", 0 ]
                }
            },
            {
                "patchline": {
                    "destination": [ "obj-3", 0 ],
                    "order": 2,
                    "source": [ "obj-7", 0 ]
                }
            },
            {
                "patchline": {
                    "destination": [ "obj-8", 0 ],
                    "order": 1,
                    "source": [ "obj-7", 0 ]
                }
            },
            {
                "patchline": {
                    "destination": [ "obj-72", 0 ],
                    "source": [ "obj-73", 0 ]
                }
            },
            {
                "patchline": {
                    "destination": [ "obj-30", 3 ],
                    "source": [ "obj-74", 0 ]
                }
            },
            {
                "patchline": {
                    "destination": [ "obj-74", 0 ],
                    "source": [ "obj-75", 0 ]
                }
            },
            {
                "patchline": {
                    "destination": [ "obj-30", 1 ],
                    "source": [ "obj-76", 0 ]
                }
            },
            {
                "patchline": {
                    "destination": [ "obj-76", 0 ],
                    "source": [ "obj-77", 0 ]
                }
            },
            {
                "patchline": {
                    "destination": [ "obj-75", 0 ],
                    "source": [ "obj-78", 0 ]
                }
            },
            {
                "patchline": {
                    "destination": [ "obj-77", 0 ],
                    "source": [ "obj-79", 0 ]
                }
            },
            {
                "patchline": {
                    "destination": [ "obj-15", 0 ],
                    "source": [ "obj-8", 0 ]
                }
            },
            {
                "patchline": {
                    "destination": [ "obj-78", 0 ],
                    "source": [ "obj-81", 1 ]
                }
            },
            {
                "patchline": {
                    "destination": [ "obj-79", 0 ],
                    "source": [ "obj-81", 0 ]
                }
            },
            {
                "patchline": {
                    "destination": [ "obj-81", 0 ],
                    "source": [ "obj-82", 0 ]
                }
            },
            {
                "patchline": {
                    "destination": [ "obj-82", 0 ],
                    "source": [ "obj-83", 0 ]
                }
            },
            {
                "patchline": {
                    "destination": [ "obj-62", 1 ],
                    "source": [ "obj-84", 0 ]
                }
            },
            {
                "patchline": {
                    "destination": [ "obj-84", 0 ],
                    "source": [ "obj-85", 0 ]
                }
            },
            {
                "patchline": {
                    "destination": [ "obj-81", 1 ],
                    "source": [ "obj-86", 0 ]
                }
            },
            {
                "patchline": {
                    "destination": [ "obj-86", 0 ],
                    "source": [ "obj-87", 0 ]
                }
            }
        ],
        "parameters": {
            "obj-25::obj-12": [ "Fullscreen", "Fullscreen", 0 ],
            "obj-25::obj-16": [ "Toggle display", "Toggle display", 0 ],
            "obj-25::obj-1::obj-23": [ "gswitch2[2]", "gswitch2", 0 ],
            "obj-25::obj-2": [ "pictctrl[2]", "pictctrl[1]", 0 ],
            "obj-25::obj-3": [ "toggle", "toggle", 0 ],
            "obj-25::obj-41": [ "pictctrl[7]", "pictctrl[1]", 0 ],
            "obj-25::obj-50": [ "pictctrl[1]", "pictctrl[1]", 0 ],
            "obj-25::obj-6": [ "live.toggle[1]", "live.toggle", 0 ],
            "obj-28::obj-10": [ "pictctrl[3]", "pictctrl[1]", 0 ],
            "obj-28::obj-112::obj-119": [ "Speed high", "Speed high", 0 ],
            "obj-28::obj-112::obj-120": [ "Rate range", "Rate range", 0 ],
            "obj-28::obj-112::obj-121": [ "Speed low", "Speed low", 0 ],
            "obj-28::obj-112::obj-16": [ "Playback range", "Playback range", 0 ],
            "obj-28::obj-112::obj-40": [ "Playback controls", "Playback controls", 0 ],
            "obj-28::obj-112::obj-79": [ "Playback position", "Playback position", 0 ],
            "obj-28::obj-112::obj-89": [ "Reset range", "Reset range", 0 ],
            "obj-28::obj-112::obj-92": [ "Reset speed", "Reset speed", 0 ],
            "obj-28::obj-20": [ "pictctrl[4]", "pictctrl[1]", 0 ],
            "obj-28::obj-28": [ "pictctrl[279]", "pictctrl[1]", 0 ],
            "obj-28::obj-40": [ "pictctrl[283]", "pictctrl[1]", 0 ],
            "obj-28::obj-51": [ "moviepath", "moviepath", 0 ],
            "obj-28::obj-60": [ "pictctrl[282]", "pictctrl[1]", 0 ],
            "obj-28::obj-64": [ "pictctrl[284]", "pictctrl[1]", 0 ],
            "obj-28::obj-81": [ "pictctrl[281]", "pictctrl[1]", 0 ],
            "obj-28::obj-83": [ "pictctrl[280]", "pictctrl[1]", 0 ],
            "obj-28::obj-89": [ "moviename", "moviename", 0 ],
            "obj-30::obj-104": [ "pictctrl[9]", "pictctrl[1]", 0 ],
            "obj-30::obj-119": [ "Brightness", "Brightness", 0 ],
            "obj-30::obj-120": [ "Brightness range", "Brightness range", 1 ],
            "obj-30::obj-121": [ "Offset[2]", "Brightness", 0 ],
            "obj-30::obj-127": [ "Contrast", "Contrast", 0 ],
            "obj-30::obj-128": [ "Contrast range", "Contrast range", 1 ],
            "obj-30::obj-129": [ "contrast", "Contrast", 0 ],
            "obj-30::obj-140": [ "Saturation", "Saturation", 0 ],
            "obj-30::obj-141": [ "Saturation range", "Saturation range", 1 ],
            "obj-30::obj-142": [ "saturation[1]", "Saturation", 0 ],
            "obj-30::obj-147": [ "pictctrl[44]", "pictctrl[1]", 0 ],
            "obj-30::obj-148": [ "pictctrl[43]", "pictctrl[1]", 0 ],
            "obj-30::obj-149": [ "pictctrl[42]", "pictctrl[1]", 0 ],
            "obj-30::obj-150": [ "pictctrl[28]", "pictctrl[1]", 0 ],
            "obj-30::obj-151": [ "pictctrl[27]", "pictctrl[1]", 0 ],
            "obj-30::obj-56::obj-23": [ "gswitch2[3]", "gswitch2", 0 ],
            "obj-30::obj-6": [ "range[5]", "range", 0 ],
            "obj-32::obj-20": [ "letterbox_menu", "letterbox_menu", 0 ],
            "obj-32::obj-37": [ "aspect_menu", "aspect_menu", 0 ],
            "parameterbanks": {
                "0": {
                    "index": 0,
                    "name": "",
                    "parameters": [ "-", "-", "-", "-", "-", "-", "-", "-" ],
                    "buttons": [ "-", "-", "-", "-", "-", "-", "-", "-" ]
                }
            },
            "parameter_overrides": {
                "obj-28::obj-10": {
                    "parameter_longname": "pictctrl[3]"
                },
                "obj-28::obj-20": {
                    "parameter_longname": "pictctrl[4]"
                }
            },
            "inherited_shortname": 1
        },
        "autosave": 0
    }
}