{
    "patcher": {
        "fileversion": 1,
        "appversion": {
            "major": 9,
            "minor": 1,
            "revision": 2,
            "architecture": "x64",
            "modernui": 1
        },
        "classnamespace": "box",
        "rect": [ 44.0, 121.0, 650.0, 797.0 ],
        "boxes": [
            {
                "box": {
                    "fontsize": 16.0,
                    "id": "obj-58",
                    "linecount": 2,
                    "maxclass": "comment",
                    "numinlets": 1,
                    "numoutlets": 0,
                    "patching_rect": [ 438.0952339172363, 72.61904692649841, 220.0, 42.0 ],
                    "text": "https://www.youtube.com/watch?v=9iZFmVyWamI"
                }
            },
            {
                "box": {
                    "id": "obj-56",
                    "linecount": 3,
                    "maxclass": "comment",
                    "numinlets": 1,
                    "numoutlets": 0,
                    "patching_rect": [ 602.3809466362, 1047.8095138072968, 150.0, 47.0 ],
                    "text": "audio output, two channels represent left and right"
                }
            },
            {
                "box": {
                    "id": "obj-54",
                    "linecount": 3,
                    "maxclass": "comment",
                    "numinlets": 1,
                    "numoutlets": 0,
                    "patching_rect": [ 522.619042634964, 817.8571350574493, 151.0, 47.0 ],
                    "text": "signal multiplier, multiplies two signals by 0, dont really understand"
                }
            },
            {
                "box": {
                    "id": "obj-52",
                    "linecount": 2,
                    "maxclass": "comment",
                    "numinlets": 1,
                    "numoutlets": 0,
                    "patching_rect": [ 54.76190423965454, 857.1428489685059, 150.0, 33.0 ],
                    "text": "combines the signal with the filter"
                }
            },
            {
                "box": {
                    "id": "obj-50",
                    "linecount": 2,
                    "maxclass": "comment",
                    "numinlets": 1,
                    "numoutlets": 0,
                    "patching_rect": [ 133.33333206176758, 577.3809468746185, 150.0, 33.0 ],
                    "text": "filter graph object, acts as filter says the youtube guy"
                }
            },
            {
                "box": {
                    "id": "obj-48",
                    "maxclass": "comment",
                    "numinlets": 1,
                    "numoutlets": 0,
                    "patching_rect": [ 281.547615647316, 411.0, 150.0, 20.0 ],
                    "text": "saw wave oscillator"
                }
            },
            {
                "box": {
                    "id": "obj-46",
                    "linecount": 2,
                    "maxclass": "comment",
                    "numinlets": 1,
                    "numoutlets": 0,
                    "patching_rect": [ 267.8571403026581, 347.5, 155.99285969734194, 33.0 ],
                    "text": "float number, determines frequency of oscilator"
                }
            },
            {
                "box": {
                    "fontsize": 18.0,
                    "id": "obj-42",
                    "linecount": 6,
                    "maxclass": "comment",
                    "numinlets": 1,
                    "numoutlets": 0,
                    "patching_rect": [ 113.09523701667786, 72.61904692649841, 321.0, 127.0 ],
                    "text": "I followed a youtube tutorial to make this simple one-oscilliscope synth that even has a filter and adsr controls! I am still curious to learn the inter-workings of msp but this was already a lot of fun"
                }
            },
            {
                "box": {
                    "fontsize": 22.0,
                    "id": "obj-41",
                    "maxclass": "comment",
                    "numinlets": 1,
                    "numoutlets": 0,
                    "patching_rect": [ 113.09523701667786, 39.28571391105652, 466.0, 31.0 ],
                    "text": "Dieder Thyen \"hello max\" assignment"
                }
            },
            {
                "box": {
                    "id": "obj-39",
                    "linecount": 2,
                    "maxclass": "comment",
                    "numinlets": 1,
                    "numoutlets": 0,
                    "patching_rect": [ 538.809517621994, 288.5, 150.0, 33.0 ],
                    "text": "I think this is handling the velocity of each midi note"
                }
            },
            {
                "box": {
                    "id": "obj-37",
                    "maxclass": "comment",
                    "numinlets": 1,
                    "numoutlets": 0,
                    "patching_rect": [ 267.8571403026581, 295.0, 150.0, 20.0 ],
                    "text": "converts note to frequency"
                }
            },
            {
                "box": {
                    "id": "obj-35",
                    "maxclass": "comment",
                    "numinlets": 1,
                    "numoutlets": 0,
                    "patching_rect": [ 307.1428556442261, 247.61904525756836, 110.714284658432, 20.0 ],
                    "text": "accepts midi input"
                }
            },
            {
                "box": {
                    "id": "obj-33",
                    "maxclass": "comment",
                    "numinlets": 1,
                    "numoutlets": 0,
                    "patching_rect": [ 710.1190408468246, 632.1428511142731, 19.76190495491028, 20.0 ],
                    "text": "r"
                }
            },
            {
                "box": {
                    "id": "obj-31",
                    "maxclass": "comment",
                    "numinlets": 1,
                    "numoutlets": 0,
                    "patching_rect": [ 658.9285651445389, 632.1428511142731, 19.76190495491028, 20.0 ],
                    "text": "s"
                }
            },
            {
                "box": {
                    "id": "obj-29",
                    "maxclass": "comment",
                    "numinlets": 1,
                    "numoutlets": 0,
                    "patching_rect": [ 612.4999941587448, 632.1428511142731, 19.76190495491028, 20.0 ],
                    "text": "d`"
                }
            },
            {
                "box": {
                    "id": "obj-27",
                    "maxclass": "comment",
                    "numinlets": 1,
                    "numoutlets": 0,
                    "patching_rect": [ 564.57142329216, 632.1428511142731, 18.0, 20.0 ],
                    "text": "a"
                }
            },
            {
                "box": {
                    "id": "obj-25",
                    "maxclass": "comment",
                    "numinlets": 1,
                    "numoutlets": 0,
                    "patching_rect": [ 522.619042634964, 926.1904673576355, 150.0, 34.0 ],
                    "text": "overall output level\n"
                }
            },
            {
                "box": {
                    "id": "obj-23",
                    "linecount": 2,
                    "maxclass": "comment",
                    "numinlets": 1,
                    "numoutlets": 0,
                    "patching_rect": [ 271.42856884002686, 507.14285230636597, 140.47618913650513, 33.0 ],
                    "text": "controls how much saw gets into the synth"
                }
            },
            {
                "box": {
                    "id": "obj-19",
                    "maxclass": "ezdac~",
                    "numinlets": 2,
                    "numoutlets": 0,
                    "patching_rect": [ 552.7857089042664, 1048.8095138072968, 45.0, 45.0 ]
                }
            },
            {
                "box": {
                    "id": "obj-17",
                    "maxclass": "gain~",
                    "multichannelvariant": 0,
                    "numinlets": 1,
                    "numoutlets": 2,
                    "outlettype": [ "signal", "" ],
                    "parameter_enable": 0,
                    "patching_rect": [ 492.0, 891.6666581630707, 22.0, 140.0 ]
                }
            },
            {
                "box": {
                    "id": "obj-16",
                    "maxclass": "newobj",
                    "numinlets": 2,
                    "numoutlets": 1,
                    "outlettype": [ "signal" ],
                    "patching_rect": [ 472.61904311180115, 821.4285635948181, 34.0, 22.0 ],
                    "text": "*~ 0."
                }
            },
            {
                "box": {
                    "id": "obj-15",
                    "maxclass": "dial",
                    "numinlets": 1,
                    "numoutlets": 1,
                    "outlettype": [ "float" ],
                    "parameter_enable": 0,
                    "patching_rect": [ 699.9999933242798, 658.3333270549774, 40.0, 40.0 ]
                }
            },
            {
                "box": {
                    "id": "obj-14",
                    "maxclass": "dial",
                    "numinlets": 1,
                    "numoutlets": 1,
                    "outlettype": [ "float" ],
                    "parameter_enable": 0,
                    "patching_rect": [ 648.809517621994, 658.3333270549774, 40.0, 40.0 ]
                }
            },
            {
                "box": {
                    "id": "obj-13",
                    "maxclass": "dial",
                    "numinlets": 1,
                    "numoutlets": 1,
                    "outlettype": [ "float" ],
                    "parameter_enable": 0,
                    "patching_rect": [ 602.3809466362, 658.3333270549774, 40.0, 40.0 ]
                }
            },
            {
                "box": {
                    "id": "obj-12",
                    "maxclass": "dial",
                    "numinlets": 1,
                    "numoutlets": 1,
                    "outlettype": [ "float" ],
                    "parameter_enable": 0,
                    "patching_rect": [ 553.57142329216, 658.3333270549774, 40.0, 40.0 ]
                }
            },
            {
                "box": {
                    "id": "obj-11",
                    "maxclass": "newobj",
                    "numinlets": 5,
                    "numoutlets": 4,
                    "outlettype": [ "signal", "signal", "", "" ],
                    "patching_rect": [ 608.3333275318146, 721.4285645484924, 61.0, 22.0 ],
                    "text": "adsr~"
                }
            },
            {
                "box": {
                    "id": "obj-10",
                    "maxclass": "newobj",
                    "numinlets": 6,
                    "numoutlets": 1,
                    "outlettype": [ "signal" ],
                    "patching_rect": [ 80.95238018035889, 810.7142779827118, 71.5, 22.0 ],
                    "text": "biquad~"
                }
            },
            {
                "box": {
                    "fontface": 0,
                    "id": "obj-9",
                    "maxclass": "filtergraph~",
                    "nfilters": 1,
                    "numinlets": 8,
                    "numoutlets": 7,
                    "outlettype": [ "list", "float", "float", "float", "float", "list", "int" ],
                    "parameter_enable": 0,
                    "patching_rect": [ 80.95238018035889, 627.3809463977814, 256.0, 128.0 ],
                    "setfilter": [ 0, 5, 1, 0, 0, 392.57379150390625, 0.9356768727302551, 2.5, 0.0, 0.0, 0.0, 0.0, 0.0, 0.0 ]
                }
            },
            {
                "box": {
                    "id": "obj-7",
                    "maxclass": "gain~",
                    "multichannelvariant": 0,
                    "numinlets": 1,
                    "numoutlets": 2,
                    "outlettype": [ "signal", "" ],
                    "parameter_enable": 1,
                    "patching_rect": [ 426.0, 503.5714237689972, 22.0, 140.0 ],
                    "saved_attribute_attributes": {
                        "valueof": {
                            "parameter_longname": "gain~",
                            "parameter_mmax": 157.0,
                            "parameter_modmode": 3,
                            "parameter_shortname": "gain~",
                            "parameter_type": 0
                        }
                    },
                    "varname": "gain~"
                }
            },
            {
                "box": {
                    "id": "obj-6",
                    "maxclass": "newobj",
                    "numinlets": 2,
                    "numoutlets": 1,
                    "outlettype": [ "signal" ],
                    "patching_rect": [ 426.0, 411.0, 37.0, 22.0 ],
                    "text": "saw~"
                }
            },
            {
                "box": {
                    "format": 6,
                    "id": "obj-5",
                    "maxclass": "flonum",
                    "numinlets": 1,
                    "numoutlets": 2,
                    "outlettype": [ "", "bang" ],
                    "parameter_enable": 0,
                    "patching_rect": [ 425.85, 353.0, 50.0, 22.0 ]
                }
            },
            {
                "box": {
                    "id": "obj-3",
                    "maxclass": "newobj",
                    "numinlets": 2,
                    "numoutlets": 1,
                    "outlettype": [ "float" ],
                    "patching_rect": [ 492.0, 294.0, 39.0, 22.0 ],
                    "text": "/ 127."
                }
            },
            {
                "box": {
                    "id": "obj-2",
                    "maxclass": "newobj",
                    "numinlets": 1,
                    "numoutlets": 1,
                    "outlettype": [ "" ],
                    "patching_rect": [ 425.85, 294.0, 32.0, 22.0 ],
                    "text": "mtof"
                }
            },
            {
                "box": {
                    "id": "obj-1",
                    "maxclass": "newobj",
                    "numinlets": 1,
                    "numoutlets": 3,
                    "outlettype": [ "int", "int", "int" ],
                    "patching_rect": [ 425.85, 251.96, 41.0, 22.0 ],
                    "text": "notein"
                }
            }
        ],
        "lines": [
            {
                "patchline": {
                    "destination": [ "obj-2", 0 ],
                    "source": [ "obj-1", 0 ]
                }
            },
            {
                "patchline": {
                    "destination": [ "obj-3", 0 ],
                    "source": [ "obj-1", 1 ]
                }
            },
            {
                "patchline": {
                    "destination": [ "obj-16", 1 ],
                    "source": [ "obj-10", 0 ]
                }
            },
            {
                "patchline": {
                    "destination": [ "obj-16", 0 ],
                    "source": [ "obj-11", 0 ]
                }
            },
            {
                "patchline": {
                    "destination": [ "obj-11", 1 ],
                    "source": [ "obj-12", 0 ]
                }
            },
            {
                "patchline": {
                    "destination": [ "obj-11", 2 ],
                    "source": [ "obj-13", 0 ]
                }
            },
            {
                "patchline": {
                    "destination": [ "obj-11", 3 ],
                    "source": [ "obj-14", 0 ]
                }
            },
            {
                "patchline": {
                    "destination": [ "obj-11", 4 ],
                    "source": [ "obj-15", 0 ]
                }
            },
            {
                "patchline": {
                    "destination": [ "obj-17", 0 ],
                    "source": [ "obj-16", 0 ]
                }
            },
            {
                "patchline": {
                    "destination": [ "obj-19", 1 ],
                    "order": 0,
                    "source": [ "obj-17", 0 ]
                }
            },
            {
                "patchline": {
                    "destination": [ "obj-19", 0 ],
                    "order": 1,
                    "source": [ "obj-17", 0 ]
                }
            },
            {
                "patchline": {
                    "destination": [ "obj-5", 0 ],
                    "source": [ "obj-2", 0 ]
                }
            },
            {
                "patchline": {
                    "destination": [ "obj-11", 0 ],
                    "source": [ "obj-3", 0 ]
                }
            },
            {
                "patchline": {
                    "destination": [ "obj-6", 0 ],
                    "source": [ "obj-5", 0 ]
                }
            },
            {
                "patchline": {
                    "destination": [ "obj-7", 0 ],
                    "source": [ "obj-6", 0 ]
                }
            },
            {
                "patchline": {
                    "destination": [ "obj-10", 0 ],
                    "source": [ "obj-7", 0 ]
                }
            },
            {
                "patchline": {
                    "destination": [ "obj-10", 0 ],
                    "source": [ "obj-9", 0 ]
                }
            }
        ],
        "parameters": {
            "obj-7": [ "gain~", "gain~", 0 ],
            "parameterbanks": {
                "0": {
                    "index": 0,
                    "name": "",
                    "parameters": [ "-", "-", "-", "-", "-", "-", "-", "-" ],
                    "buttons": [ "-", "-", "-", "-", "-", "-", "-", "-" ]
                }
            },
            "inherited_shortname": 1
        },
        "autosave": 0
    }
}