{
    "patcher": {
        "fileversion": 1,
        "appversion": {
            "major": 9,
            "minor": 1,
            "revision": 2,
            "architecture": "x64",
            "modernui": 1
        },
        "classnamespace": "box",
        "rect": [ 34.0, 100.0, 1000.0, 780.0 ],
        "boxes": [
            {
                "box": {
                    "id": "obj-71",
                    "maxclass": "message",
                    "numinlets": 2,
                    "numoutlets": 1,
                    "outlettype": [ "" ],
                    "patching_rect": [ 1299.1935576796532, 232.25806617736816, 47.0, 22.0 ],
                    "text": "recall 2"
                }
            },
            {
                "box": {
                    "id": "obj-70",
                    "maxclass": "message",
                    "numinlets": 2,
                    "numoutlets": 1,
                    "outlettype": [ "" ],
                    "patching_rect": [ 1307.2580738663673, 277.41935682296753, 47.0, 22.0 ],
                    "text": "recall 1"
                }
            },
            {
                "box": {
                    "id": "obj-68",
                    "maxclass": "message",
                    "numinlets": 2,
                    "numoutlets": 1,
                    "outlettype": [ "" ],
                    "patching_rect": [ 1218.5483958125114, 255.64516311883926, 45.0, 22.0 ],
                    "text": "store 2"
                }
            },
            {
                "box": {
                    "id": "obj-66",
                    "maxclass": "message",
                    "numinlets": 2,
                    "numoutlets": 1,
                    "outlettype": [ "" ],
                    "patching_rect": [ 1152.0588713884354, 267.7419373989105, 45.0, 22.0 ],
                    "text": "store 1"
                }
            },
            {
                "box": {
                    "id": "obj-61",
                    "maxclass": "swatch",
                    "numinlets": 3,
                    "numoutlets": 2,
                    "outlettype": [ "", "float" ],
                    "parameter_enable": 0,
                    "patching_rect": [ 958.8709746003151, 116.9354847073555, 128.0, 32.0 ],
                    "saturation": 1.0
                }
            },
            {
                "box": {
                    "bgcolor": [ 1.0, 1.0, 1.0, 1.0 ],
                    "id": "obj-57",
                    "maxclass": "number",
                    "numinlets": 1,
                    "numoutlets": 2,
                    "outlettype": [ "", "bang" ],
                    "parameter_enable": 0,
                    "patching_rect": [ 1147.0588713884354, 195.29412579536438, 50.0, 22.0 ],
                    "varname": "guy"
                }
            },
            {
                "box": {
                    "id": "obj-48",
                    "maxclass": "live.scope~",
                    "numinlets": 2,
                    "numoutlets": 1,
                    "outlettype": [ "bang" ],
                    "patching_rect": [ 699.2222222222222, 863.3588383197784, 184.0, 68.0 ]
                }
            },
            {
                "box": {
                    "fontface": 0,
                    "fontsize": 12.0,
                    "id": "obj-45",
                    "maxclass": "newobj",
                    "numinlets": 1,
                    "numoutlets": 1,
                    "outlettype": [ "bang" ],
                    "patching_rect": [ 1065.9722730517387, 538.8889145851135, 58.0, 22.0 ],
                    "style": "chiba",
                    "text": "loadbang"
                }
            },
            {
                "box": {
                    "fontface": 0,
                    "fontsize": 12.0,
                    "hidden": 1,
                    "id": "obj-44",
                    "maxclass": "message",
                    "numinlets": 2,
                    "numoutlets": 1,
                    "outlettype": [ "" ],
                    "patching_rect": [ 1065.9722730517387, 575.0000274181366, 189.0, 22.0 ],
                    "style": "chiba",
                    "text": "600 100 0.5 1000 0 1 0 0 100 100"
                }
            },
            {
                "box": {
                    "bgcolor": [ 0.094118, 0.113725, 0.137255, 1.0 ],
                    "fgcolor": [ 1.0, 0.603922, 0.0, 1.0 ],
                    "id": "obj-43",
                    "interval": 50,
                    "logfreq": 1,
                    "markercolor": [ 0.301961, 0.337255, 0.403922, 1.0 ],
                    "maxclass": "spectroscope~",
                    "monochrome": 0,
                    "numinlets": 2,
                    "numoutlets": 1,
                    "outlettype": [ "" ],
                    "patching_rect": [ 610.1124082803726, 1094.3821098804474, 239.0, 124.0 ],
                    "prototypename": "M4L.spectro.black",
                    "sono": 1,
                    "sonohicolor": [ 1.0, 1.0, 1.0, 1.0 ],
                    "sonolocolor": [ 0.094118, 0.113725, 0.137255, 1.0 ],
                    "sonomedcolor": [ 0.301961, 0.337255, 0.403922, 1.0 ],
                    "sonomedhicolor": [ 0.494118, 0.556863, 0.607843, 1.0 ],
                    "sonomedlocolor": [ 0.666667, 0.698039, 0.717647, 1.0 ],
                    "sonomonofgcolor": [ 0.094118, 0.113725, 0.137255, 1.0 ]
                }
            },
            {
                "box": {
                    "id": "obj-42",
                    "maxclass": "spectroscope~",
                    "numinlets": 2,
                    "numoutlets": 1,
                    "outlettype": [ "" ],
                    "patching_rect": [ 865.1686084270477, 1085.393345117569, 300.0, 100.0 ]
                }
            },
            {
                "box": {
                    "id": "obj-41",
                    "maxclass": "scope~",
                    "numinlets": 2,
                    "numoutlets": 0,
                    "patching_rect": [ 440.4494733810425, 1094.3821098804474, 130.0, 130.0 ]
                }
            },
            {
                "box": {
                    "id": "obj-40",
                    "linecount": 5,
                    "maxclass": "comment",
                    "numinlets": 1,
                    "numoutlets": 0,
                    "patching_rect": [ 1030.666697382927, 752.6666890978813, 204.00000607967377, 74.0 ],
                    "text": "arguments:\nattack time(number)(optional)\ndecay time(number)(optional)\nsustain(number)(optional)\nrelease time(number)(optional)"
                }
            },
            {
                "box": {
                    "id": "obj-38",
                    "maxclass": "comment",
                    "numinlets": 1,
                    "numoutlets": 0,
                    "patching_rect": [ 874.8275262415409, 568.6000084578991, 150.0, 20.0 ],
                    "text": "release(ms)"
                }
            },
            {
                "box": {
                    "id": "obj-36",
                    "maxclass": "comment",
                    "numinlets": 1,
                    "numoutlets": 0,
                    "patching_rect": [ 785.6000117063522, 440.60000655055046, 150.0, 20.0 ],
                    "text": "attack(ms)"
                }
            },
            {
                "box": {
                    "id": "obj-34",
                    "maxclass": "comment",
                    "numinlets": 1,
                    "numoutlets": 0,
                    "patching_rect": [ 814.3333333333334, 484.60000720620155, 150.0, 20.0 ],
                    "text": "decay(ms)"
                }
            },
            {
                "box": {
                    "id": "obj-32",
                    "maxclass": "comment",
                    "numinlets": 1,
                    "numoutlets": 0,
                    "patching_rect": [ 840.3447699844837, 525.8000078201294, 150.0, 20.0 ],
                    "text": "sustain gain"
                }
            },
            {
                "box": {
                    "format": 6,
                    "id": "obj-30",
                    "maxclass": "flonum",
                    "numinlets": 1,
                    "numoutlets": 2,
                    "outlettype": [ "", "bang" ],
                    "parameter_enable": 0,
                    "patching_rect": [ 728.0, 439.60000655055046, 50.0, 22.0 ]
                }
            },
            {
                "box": {
                    "format": 6,
                    "id": "obj-28",
                    "maxclass": "flonum",
                    "numinlets": 1,
                    "numoutlets": 2,
                    "outlettype": [ "", "bang" ],
                    "parameter_enable": 0,
                    "patching_rect": [ 756.7777777777778, 483.60000720620155, 50.0, 22.0 ]
                }
            },
            {
                "box": {
                    "format": 6,
                    "id": "obj-26",
                    "maxclass": "flonum",
                    "numinlets": 1,
                    "numoutlets": 2,
                    "outlettype": [ "", "bang" ],
                    "parameter_enable": 0,
                    "patching_rect": [ 785.6000117063522, 524.8000078201294, 50.0, 22.0 ]
                }
            },
            {
                "box": {
                    "format": 6,
                    "id": "obj-24",
                    "maxclass": "flonum",
                    "numinlets": 1,
                    "numoutlets": 2,
                    "outlettype": [ "", "bang" ],
                    "parameter_enable": 0,
                    "patching_rect": [ 814.3333333333334, 567.6000084578991, 50.0, 22.0 ]
                }
            },
            {
                "box": {
                    "id": "obj-22",
                    "maxclass": "ezdac~",
                    "numinlets": 2,
                    "numoutlets": 0,
                    "patching_rect": [ 449.2423846125603, 946.9696134328842, 45.0, 45.0 ]
                }
            },
            {
                "box": {
                    "id": "obj-21",
                    "maxclass": "newobj",
                    "numinlets": 1,
                    "numoutlets": 1,
                    "outlettype": [ "int" ],
                    "patching_rect": [ 363.33334416151047, 277.33334159851074, 40.0, 22.0 ],
                    "text": "midiin"
                }
            },
            {
                "box": {
                    "id": "obj-20",
                    "maxclass": "kslider",
                    "numinlets": 2,
                    "numoutlets": 2,
                    "outlettype": [ "int", "int" ],
                    "parameter_enable": 0,
                    "patching_rect": [ 363.33334416151047, 362.90322840213776, 336.0, 53.0 ]
                }
            },
            {
                "box": {
                    "id": "obj-19",
                    "items": "<empty>",
                    "maxclass": "umenu",
                    "numinlets": 1,
                    "numoutlets": 3,
                    "outlettype": [ "int", "", "" ],
                    "parameter_enable": 1,
                    "patching_rect": [ 1229.999882698059, 378.40322840213776, 100.0, 22.0 ],
                    "saved_attribute_attributes": {
                        "valueof": {
                            "parameter_enum": [ "0", "1" ],
                            "parameter_longname": "umenu",
                            "parameter_mmax": 1,
                            "parameter_modmode": 0,
                            "parameter_shortname": "umenu",
                            "parameter_type": 2
                        }
                    },
                    "varname": "umenu"
                }
            },
            {
                "box": {
                    "id": "obj-12",
                    "lastchannelcount": 0,
                    "maxclass": "live.gain~",
                    "numinlets": 2,
                    "numoutlets": 5,
                    "outlettype": [ "signal", "signal", "", "float", "list" ],
                    "parameter_enable": 1,
                    "patching_rect": [ 449.2423846125603, 768.4616117477417, 48.0, 136.0 ],
                    "saved_attribute_attributes": {
                        "valueof": {
                            "parameter_longname": "live.gain~",
                            "parameter_mmax": 6.0,
                            "parameter_mmin": -70.0,
                            "parameter_modmode": 3,
                            "parameter_shortname": "live.gain~",
                            "parameter_type": 0,
                            "parameter_unitstyle": 4
                        }
                    },
                    "varname": "live.gain~"
                }
            },
            {
                "box": {
                    "id": "obj-11",
                    "maxclass": "newobj",
                    "numinlets": 2,
                    "numoutlets": 1,
                    "outlettype": [ "signal" ],
                    "patching_rect": [ 460.6774226427078, 698.319286108017, 34.0, 22.0 ],
                    "text": "*~ 0."
                }
            },
            {
                "box": {
                    "id": "obj-10",
                    "maxclass": "newobj",
                    "numinlets": 1,
                    "numoutlets": 1,
                    "outlettype": [ "" ],
                    "patching_rect": [ 1188.709685921669, 320.16129261255264, 73.0, 22.0 ],
                    "saved_object_attributes": {
                        "client_rect": [ 1105, 225, 1835, 670 ],
                        "parameter_enable": 0,
                        "parameter_mappable": 0
                    },
                    "text": "pattrstorage",
                    "varname": "u903003080"
                }
            },
            {
                "box": {
                    "fontsize": 21.722176841391434,
                    "id": "obj-9",
                    "maxclass": "newobj",
                    "numinlets": 11,
                    "numoutlets": 3,
                    "outlettype": [ "signal", "signal", "" ],
                    "patching_rect": [ 699.2222222222222, 751.5, 306.7777777777778, 33.0 ],
                    "text": "live.adsr~"
                }
            },
            {
                "box": {
                    "attack_time": 600.0,
                    "decay_time": 100.0,
                    "id": "obj-8",
                    "maxclass": "live.adsrui",
                    "numinlets": 10,
                    "numoutlets": 10,
                    "outlettype": [ "", "", "", "", "", "", "", "", "", "" ],
                    "patching_rect": [ 728.0, 614.0, 278.0, 103.0 ],
                    "release_time": 1000.0,
                    "sustain": 0.5
                }
            },
            {
                "box": {
                    "id": "obj-7",
                    "maxclass": "newobj",
                    "numinlets": 2,
                    "numoutlets": 1,
                    "outlettype": [ "signal" ],
                    "patching_rect": [ 459.6774226427078, 645.9677465558052, 43.0, 22.0 ],
                    "text": "cycle~"
                }
            },
            {
                "box": {
                    "id": "obj-6",
                    "maxclass": "newobj",
                    "numinlets": 1,
                    "numoutlets": 1,
                    "outlettype": [ "" ],
                    "patching_rect": [ 455.64516454935074, 591.1290364861488, 32.0, 22.0 ],
                    "text": "mtof"
                }
            },
            {
                "box": {
                    "id": "obj-5",
                    "maxclass": "newobj",
                    "numinlets": 2,
                    "numoutlets": 1,
                    "outlettype": [ "float" ],
                    "patching_rect": [ 568.5483911633492, 599.193552672863, 39.0, 22.0 ],
                    "text": "/ 127."
                }
            },
            {
                "box": {
                    "id": "obj-4",
                    "maxclass": "newobj",
                    "numinlets": 3,
                    "numoutlets": 2,
                    "outlettype": [ "float", "float" ],
                    "patching_rect": [ 489.51613253355026, 500.8064551949501, 108.0, 22.0 ],
                    "text": "makenote 100 250"
                }
            },
            {
                "box": {
                    "active1": [ 1.0, 1.0, 0.254902, 1.0 ],
                    "bgcolor": [ 0.666667, 0.698039, 0.717647, 1.0 ],
                    "emptycolor": [ 0.301961, 0.337255, 0.403922, 1.0 ],
                    "id": "obj-3",
                    "maxclass": "preset",
                    "numinlets": 1,
                    "numoutlets": 5,
                    "outlettype": [ "preset", "int", "preset", "int", "" ],
                    "patching_rect": [ 1424.1935585737228, 255.64516311883926, 136.0544204711914, 64.62584972381592 ],
                    "prototypename": "M4L.H",
                    "stored1": [ 0.984314, 0.819608, 0.05098, 1.0 ],
                    "textcolor": [ 1.0, 1.0, 1.0, 1.0 ]
                }
            },
            {
                "box": {
                    "id": "obj-2",
                    "maxclass": "newobj",
                    "numinlets": 1,
                    "numoutlets": 4,
                    "outlettype": [ "", "", "", "" ],
                    "patching_rect": [ 1084.9998965263367, 349.9999666213989, 56.0, 22.0 ],
                    "restore": {
                        "live.gain~": [ -23.154219816592096 ],
                        "umenu": [ 0 ]
                    },
                    "text": "autopattr",
                    "varname": "u381001360"
                }
            },
            {
                "box": {
                    "id": "obj-1",
                    "maxclass": "newobj",
                    "numinlets": 1,
                    "numoutlets": 3,
                    "outlettype": [ "", "", "" ],
                    "patching_rect": [ 956.4706281423569, 204.11765557527542, 149.0, 22.0 ],
                    "restore": [ 1.0, 1.0, 1.0, 1.0 ],
                    "saved_object_attributes": {
                        "parameter_enable": 0,
                        "parameter_mappable": 0
                    },
                    "text": "pattr @bindto guy::bgcolor",
                    "varname": "u840003551"
                }
            }
        ],
        "lines": [
            {
                "patchline": {
                    "destination": [ "obj-12", 1 ],
                    "order": 0,
                    "source": [ "obj-11", 0 ]
                }
            },
            {
                "patchline": {
                    "destination": [ "obj-12", 0 ],
                    "order": 1,
                    "source": [ "obj-11", 0 ]
                }
            },
            {
                "patchline": {
                    "destination": [ "obj-22", 1 ],
                    "source": [ "obj-12", 1 ]
                }
            },
            {
                "patchline": {
                    "destination": [ "obj-22", 0 ],
                    "order": 2,
                    "source": [ "obj-12", 0 ]
                }
            },
            {
                "patchline": {
                    "destination": [ "obj-41", 0 ],
                    "order": 3,
                    "source": [ "obj-12", 0 ]
                }
            },
            {
                "patchline": {
                    "destination": [ "obj-42", 0 ],
                    "order": 0,
                    "source": [ "obj-12", 0 ]
                }
            },
            {
                "patchline": {
                    "destination": [ "obj-43", 0 ],
                    "order": 1,
                    "source": [ "obj-12", 0 ]
                }
            },
            {
                "patchline": {
                    "destination": [ "obj-4", 1 ],
                    "source": [ "obj-20", 1 ]
                }
            },
            {
                "patchline": {
                    "destination": [ "obj-4", 0 ],
                    "source": [ "obj-20", 0 ]
                }
            },
            {
                "patchline": {
                    "destination": [ "obj-20", 0 ],
                    "source": [ "obj-21", 0 ]
                }
            },
            {
                "patchline": {
                    "destination": [ "obj-8", 3 ],
                    "source": [ "obj-24", 0 ]
                }
            },
            {
                "patchline": {
                    "destination": [ "obj-8", 2 ],
                    "source": [ "obj-26", 0 ]
                }
            },
            {
                "patchline": {
                    "destination": [ "obj-8", 1 ],
                    "source": [ "obj-28", 0 ]
                }
            },
            {
                "patchline": {
                    "destination": [ "obj-8", 0 ],
                    "source": [ "obj-30", 0 ]
                }
            },
            {
                "patchline": {
                    "destination": [ "obj-5", 0 ],
                    "source": [ "obj-4", 1 ]
                }
            },
            {
                "patchline": {
                    "destination": [ "obj-6", 0 ],
                    "source": [ "obj-4", 0 ]
                }
            },
            {
                "patchline": {
                    "destination": [ "obj-8", 0 ],
                    "source": [ "obj-44", 0 ]
                }
            },
            {
                "patchline": {
                    "destination": [ "obj-44", 0 ],
                    "source": [ "obj-45", 0 ]
                }
            },
            {
                "patchline": {
                    "destination": [ "obj-9", 0 ],
                    "source": [ "obj-5", 0 ]
                }
            },
            {
                "patchline": {
                    "destination": [ "obj-7", 0 ],
                    "source": [ "obj-6", 0 ]
                }
            },
            {
                "patchline": {
                    "destination": [ "obj-1", 0 ],
                    "source": [ "obj-61", 0 ]
                }
            },
            {
                "patchline": {
                    "destination": [ "obj-10", 0 ],
                    "source": [ "obj-66", 0 ]
                }
            },
            {
                "patchline": {
                    "destination": [ "obj-10", 0 ],
                    "source": [ "obj-68", 0 ]
                }
            },
            {
                "patchline": {
                    "destination": [ "obj-11", 0 ],
                    "source": [ "obj-7", 0 ]
                }
            },
            {
                "patchline": {
                    "destination": [ "obj-10", 0 ],
                    "source": [ "obj-70", 0 ]
                }
            },
            {
                "patchline": {
                    "destination": [ "obj-10", 0 ],
                    "source": [ "obj-71", 0 ]
                }
            },
            {
                "patchline": {
                    "destination": [ "obj-9", 10 ],
                    "source": [ "obj-8", 9 ]
                }
            },
            {
                "patchline": {
                    "destination": [ "obj-9", 9 ],
                    "source": [ "obj-8", 8 ]
                }
            },
            {
                "patchline": {
                    "destination": [ "obj-9", 8 ],
                    "source": [ "obj-8", 7 ]
                }
            },
            {
                "patchline": {
                    "destination": [ "obj-9", 7 ],
                    "source": [ "obj-8", 6 ]
                }
            },
            {
                "patchline": {
                    "destination": [ "obj-9", 6 ],
                    "source": [ "obj-8", 5 ]
                }
            },
            {
                "patchline": {
                    "destination": [ "obj-9", 5 ],
                    "source": [ "obj-8", 4 ]
                }
            },
            {
                "patchline": {
                    "destination": [ "obj-9", 4 ],
                    "source": [ "obj-8", 3 ]
                }
            },
            {
                "patchline": {
                    "destination": [ "obj-9", 3 ],
                    "source": [ "obj-8", 2 ]
                }
            },
            {
                "patchline": {
                    "destination": [ "obj-9", 2 ],
                    "source": [ "obj-8", 1 ]
                }
            },
            {
                "patchline": {
                    "destination": [ "obj-9", 1 ],
                    "source": [ "obj-8", 0 ]
                }
            },
            {
                "patchline": {
                    "destination": [ "obj-48", 0 ],
                    "source": [ "obj-9", 0 ]
                }
            }
        ],
        "parameters": {
            "obj-12": [ "live.gain~", "live.gain~", 0 ],
            "obj-19": [ "umenu", "umenu", 0 ],
            "inherited_shortname": 1
        },
        "autosave": 0,
        "styles": [
            {
                "name": "rnbodefault",
                "default": {
                    "accentcolor": [ 0.343034118413925, 0.506230533123016, 0.86220508813858, 1.0 ],
                    "bgcolor": [ 0.031372549019608, 0.125490196078431, 0.211764705882353, 1.0 ],
                    "bgfillcolor": {
                        "angle": 270.0,
                        "autogradient": 0.0,
                        "color": [ 0.031372549019608, 0.125490196078431, 0.211764705882353, 1.0 ],
                        "color1": [ 0.031372549019608, 0.125490196078431, 0.211764705882353, 1.0 ],
                        "color2": [ 0.263682, 0.004541, 0.038797, 1.0 ],
                        "proportion": 0.39,
                        "type": "color"
                    },
                    "color": [ 0.929412, 0.929412, 0.352941, 1.0 ],
                    "elementcolor": [ 0.357540726661682, 0.515565991401672, 0.861786782741547, 1.0 ],
                    "fontname": [ "Lato" ],
                    "fontsize": [ 12.0 ],
                    "stripecolor": [ 0.258338063955307, 0.352425158023834, 0.511919498443604, 1.0 ],
                    "textcolor_inverse": [ 0.968627, 0.968627, 0.968627, 1 ]
                },
                "parentstyle": "",
                "multi": 0
            },
            {
                "name": "rnbolight",
                "default": {
                    "accentcolor": [ 0.443137254901961, 0.505882352941176, 0.556862745098039, 1.0 ],
                    "bgcolor": [ 0.796078431372549, 0.862745098039216, 0.925490196078431, 1.0 ],
                    "bgfillcolor": {
                        "angle": 270.0,
                        "autogradient": 0.0,
                        "color": [ 0.835294117647059, 0.901960784313726, 0.964705882352941, 1.0 ],
                        "color1": [ 0.031372549019608, 0.125490196078431, 0.211764705882353, 1.0 ],
                        "color2": [ 0.263682, 0.004541, 0.038797, 1.0 ],
                        "proportion": 0.39,
                        "type": "color"
                    },
                    "clearcolor": [ 0.898039, 0.898039, 0.898039, 1.0 ],
                    "color": [ 0.815686274509804, 0.509803921568627, 0.262745098039216, 1.0 ],
                    "editing_bgcolor": [ 0.898039, 0.898039, 0.898039, 1.0 ],
                    "elementcolor": [ 0.337254901960784, 0.384313725490196, 0.462745098039216, 1.0 ],
                    "fontname": [ "Lato" ],
                    "locked_bgcolor": [ 0.898039, 0.898039, 0.898039, 1.0 ],
                    "stripecolor": [ 0.309803921568627, 0.698039215686274, 0.764705882352941, 1.0 ],
                    "textcolor_inverse": [ 0.0, 0.0, 0.0, 1.0 ]
                },
                "parentstyle": "",
                "multi": 0
            }
        ]
    }
}